<?xml version="1.0" encoding="utf-8"?>
<!-- Generator: Adobe Illustrator 25.1.0, SVG Export Plug-In . SVG Version: 6.00 Build 0)  -->
<svg version="1.1" id="Calque_1" xmlns="http://www.w3.org/2000/svg" xmlns:xlink="http://www.w3.org/1999/xlink" x="0px" y="0px"
	 viewBox="0 0 1267 104" style="enable-background:new 0 0 1267 104;" xml:space="preserve">
<style type="text/css">
	.st0{fill:#579957;}
	.st1{fill:#2C722C;}
</style>
<path class="st0" d="M17,44l5-12l1,1l7-9l6,8l31,9l38-14l15-13l4,3l8-9l4,6l2-2l10,15l15-11l9,7l3-5l24,30l7,22c0,0-185,1.2-186-2
	S17,44,17,44z M272,50l14-36l6,4l15-16l21,25l7-7l9,13l-24,42l-42-2 M365,61l20-32l10,5l14-6l7-8l19,16l39,9l6-9l6,2l19-26l7-8l6,20
	l3-10l17,26l17,7h14l26-20l29,17l14-11l3,1l4-5l12,17l2-1l10,13l32-13l27-12l14,2l10-10l17,9l-19,38l-290,3 M837,55l21-27l4,6l22-20
	l6,9l7-20l25,37l5,26l-71,9 M996,23c1.6,1,21,11,21,11l12-7l11,19l41-7l6-13l20-23l13,14l6-5l9,17l18,16l1,22c0,0-61,20.8-63,20
	s-91-20-91-20S994.4,22,996,23z M1202,56l35-40l4,6l7-7l14,9l5,50c0,0-24,4.5-27,4S1202,56,1202,56z"/>
<path class="st1" d="M0,104V47l20-10l28-23l4,2l9-10l4,7l2-2l4,8l7,8c0,0,12.8-11,14-11s8,5,8,5l3-4l27,26l16-6l35,18l25-25l8-17
	c0,0,6.8,3,8,3s14-16,14-16l21,25l8-6l29,36l20-26l10,5l15-8l7-9l31,26l29,7l23-35l18,8l13-6l13,13l9-7l19,24l11-6l46,14l25-27
	l21,23l15,5h48l12-19l1-6l2,1l7-8l3,5l2-1l5,9l22,13l32-14l26-22l4,1l8-9l4,8l2-2l11,14l14-10l9,6l3-4l26,25l15-7l34,21l26-27l12-19
	l5,5l14-13l20,23l9-7l28,35l21-26l10,7l14-7l8-11l31,26l30,7l22-36l17,10l14-7l16,15l5-9l20,23l10-6l18,6c2.7,0.3,5.3,0.7,8,1
	c0,19,0,38,0,57H0z"/>
</svg>
