<?xml version="1.0" encoding="utf-8"?>
<!-- Generator: Adobe Illustrator 25.2.1, SVG Export Plug-In . SVG Version: 6.00 Build 0)  -->
<svg version="1.1" id="Layer_1" xmlns="http://www.w3.org/2000/svg" xmlns:xlink="http://www.w3.org/1999/xlink" x="0px" y="0px"
	 viewBox="0 0 600 592" style="enable-background:new 0 0 600 592;" xml:space="preserve">
<g>
	<g>
		<path d="M300,80c-74.4,0-135,60.6-135,135s60.6,135,135,135s135-60.6,135-135S374.4,80,300,80z"/>
	</g>
</g>
<g>
	<g>
		<path d="M468,438.2c-37-37.5-86-58.2-138-58.2h-60c-52,0-101,20.7-138,58.2C95.3,475.5,75,524.8,75,577c0,8.3,6.7,15,15,15h420
			c8.3,0,15-6.7,15-15C525,524.8,504.7,475.5,468,438.2z"/>
	</g>
</g>
</svg>
