<?xml version="1.0" encoding="utf-8"?>
<!-- Generator: Adobe Illustrator 25.1.0, SVG Export Plug-In . SVG Version: 6.00 Build 0)  -->
<svg version="1.1" xmlns="http://www.w3.org/2000/svg" xmlns:xlink="http://www.w3.org/1999/xlink" x="0px" y="0px"
	 viewBox="0 0 434.6 358" style="enable-background:new 0 0 434.6 358;" xml:space="preserve">
<style type="text/css">
	.st0{display:none;}
	.st1{display:inline;}
	.st2{display:inline;fill:none;stroke:#000000;stroke-miterlimit:10;}
	.st3{fill:#FFFFFF;}
</style>
<g id="Calque_1" class="st0">
	<g id="PDFz6A_1_" class="st1">
		
			<image style="overflow:visible;" width="474" height="512" id="PDFz6A_2_" xlink:href="7BA0B8E1F78FCBF5.jpg"  transform="matrix(1 0 0 1 -12.2811 -77.1172)">
		</image>
	</g>
</g>
<g id="Calque_2" class="st0">
	<rect x="0" y="0" class="st2" width="480.3" height="358"/>
</g>
<g id="Calque_3">
	<path class="st3" d="M0,358c49.1-85.1,98.2-170.2,147.3-255.3c3.4,6.2,6.7,12.4,10.1,18.6C180,80.9,202.5,40.4,225,0
		c69.9,119.3,139.7,238.7,209.6,358c-19.9,0-39.7,0-59.6,0c-50-85.8-100-171.6-150-257.5c-22.2,32.8-44.3,65.6-66.5,98.4
		c-3.7-6-7.4-12.1-11.2-18.1c-8.9,15.8-17.7,31.6-26.6,47.3c19.8-6.1,42.4-11.8,67.7-16c34.9-5.8,66.5-7.4,93.1-7
		c-38.8,9.2-88.7,25.1-142.7,53.3C77.1,290.8,31.3,328.2,0,358z"/>
</g>
</svg>
