<?xml version="1.0" encoding="utf-8"?>
<!-- Generator: Adobe Illustrator 25.2.1, SVG Export Plug-In . SVG Version: 6.00 Build 0)  -->
<svg version="1.1" id="Calque_1" xmlns="http://www.w3.org/2000/svg" xmlns:xlink="http://www.w3.org/1999/xlink" x="0px" y="0px"
	 viewBox="0 0 905.4 472.9" style="enable-background:new 0 0 905.4 472.9;" xml:space="preserve">
<style type="text/css">
	.st0{display:none;}
	.st1{display:inline;}
	.st2{display:inline;fill:none;stroke:#000000;stroke-miterlimit:10;}
	.st3{fill:#195819;}
</style>
<g id="Calque_1_1_" class="st0">
	<g id="PDFz6A_1_" class="st1">
	</g>
</g>
<g id="Calque_2_1_" class="st0">
	<rect x="235.4" class="st2" width="480.3" height="358"/>
</g>
<g id="Calque_3">
	<path class="st3" d="M235.4,366c49.1-85.1,98.2-170.2,147.3-255.3c3.4,6.2,6.7,12.4,10.1,18.6C415.4,88.9,437.9,48.4,460.4,8
		C530.3,127.3,600.1,246.7,670,366c-19.9,0-39.7,0-59.6,0c-50-85.8-100-171.6-150-257.5c-22.2,32.8-44.3,65.6-66.5,98.4
		c-3.7-6-7.4-12.1-11.2-18.1c-8.9,15.8-17.7,31.6-26.6,47.3c19.8-6.1,42.4-11.8,67.7-16c34.9-5.8,66.5-7.4,93.1-7
		c-38.8,9.2-88.7,25.1-142.7,53.3C312.5,298.8,266.7,336.2,235.4,366z"/>
</g>
<g>
	<path class="st3" d="M78.9,464l-4.3-11H53l-4.1,11H34.2l23.4-55.9h13.1L93.9,464H78.9z M63.9,423l-7.1,19.2h14.1L63.9,423z"/>
	<path class="st3" d="M122.6,464h-20.8v-55.9H122c15.9,0,32,6.6,32,27.8C153.9,455.5,138,464,122.6,464z M121.6,419.6h-6.7v32.7h6.4
		c9.6,0,18.5-3.9,18.5-16.4C139.9,423.3,131,419.6,121.6,419.6z"/>
	<path class="st3" d="M193.8,465.5c-17.4,0-30.4-12-30.4-29.7c0-17.9,12.9-29.2,30.4-29.2c17.5,0,30.5,11.3,30.5,29.2
		C224.3,453.5,211.3,465.5,193.8,465.5z M193.8,418.8c-9.5,0-15.9,7.3-15.9,17c0,10.1,6.6,17.4,15.9,17.4s16-7.3,16-17.4
		C209.8,426,203.3,418.8,193.8,418.8z"/>
	<path class="st3" d="M256.5,442.9h-6.7V464h-13.5v-55.9h20.5c12.2,0,21.9,4.4,21.9,17.2C278.7,438.3,268.2,442.9,256.5,442.9z
		 M255.8,419h-5.9v13.2h5.7c5.1,0,9.7-1.5,9.7-6.8C265.2,420,260.6,419,255.8,419z"/>
	<path class="st3" d="M313.5,419.6V464H300v-44.4h-15.8v-11.5h45.1v11.5H313.5z"/>
	<path class="st3" d="M338.6,464v-55.9h37.6v11.4h-24.5V430h23.2v10.8h-23.2v11.6h26V464H338.6z"/>
	<path class="st3" d="M458.7,465.5c-14.7,0-23.8-9.2-23.8-22.6v-34.8h13.4v33.7c0,6,2.9,11.5,10.5,11.5c7.7,0,10.5-5.5,10.5-11.5
		v-33.7h13.5v34.8C482.8,456.3,473.3,465.5,458.7,465.5z"/>
	<path class="st3" d="M532.3,464l-22.5-36.5h-0.2l0.3,36.5h-13.1v-55.9h15.4l22.4,36.5h0.2l-0.3-36.5h13.1V464H532.3z"/>
	<path class="st3" d="M636.2,465.4c-17.8,0-30.7-11.8-30.7-29.4c0-17.9,13.3-29.4,30.3-29.4c8.8,0,16.9,2.9,21.5,7.4l-8.5,9.7
		c-2.6-3-7.1-5.2-12.6-5.2c-9.5,0-16.4,7.4-16.4,17.4c0,10.3,6.1,17.6,17,17.6c3.2,0,6.1-0.5,8.4-1.5v-10.2h-10.7V431h23v29.6
		C652.3,463.4,644.8,465.4,636.2,465.4z"/>
	<path class="st3" d="M695.3,465.5c-14.7,0-23.8-9.2-23.8-22.6v-34.8h13.4v33.7c0,6,2.9,11.5,10.5,11.5c7.7,0,10.5-5.5,10.5-11.5
		v-33.7h13.5v34.8C719.3,456.3,709.9,465.5,695.3,465.5z"/>
	<path class="st3" d="M733.4,464v-55.9H747V464H733.4z"/>
	<path class="st3" d="M782.5,464h-20.8v-55.9h20.2c15.9,0,32,6.6,32,27.8C813.8,455.5,797.9,464,782.5,464z M781.5,419.6h-6.7v32.7
		h6.4c9.6,0,18.5-3.9,18.5-16.4C799.8,423.3,790.9,419.6,781.5,419.6z"/>
	<path class="st3" d="M825.9,464v-55.9h37.6v11.4h-24.5V430h23.2v10.8h-23.2v11.6h26V464H825.9z"/>
</g>
</svg>
